<?xml version="1.0" standalone="no"?>
<!DOCTYPE svg PUBLIC "-//W3C//DTD SVG 20010904//EN"
 "http://www.w3.org/TR/2001/REC-SVG-20010904/DTD/svg10.dtd">
<svg version="1.0" xmlns="http://www.w3.org/2000/svg"
 width="100.000000pt" height="100.000000pt" viewBox="0 0 100.000000 100.000000"
 preserveAspectRatio="xMidYMid meet">
<metadata>
Created by potrace 1.16, written by Peter Selinger 2001-2019
</metadata>
<g transform="translate(0.000000,100.000000) scale(0.100000,-0.100000)"
fill="#000000" stroke="none">
<path d="M354 753 c-22 -16 -194 -315 -194 -338 0 -24 1 -24 108 -27 l107 -3
3 -58 c3 -57 4 -58 30 -55 25 3 27 7 32 58 5 53 6 55 35 55 25 1 30 5 30 25 0
21 -5 26 -32 28 l-32 3 -3 157 -3 157 -35 3 c-19 1 -40 -1 -46 -5z m26 -183
l0 -130 -80 0 -79 0 77 130 c42 71 78 130 80 130 1 0 2 -58 2 -130z"/>
<path d="M666 721 c-65 -44 -84 -67 -68 -83 7 -7 26 -1 61 21 l51 31 0 -185 0
-185 -55 0 c-52 0 -55 -1 -55 -25 l0 -26 138 3 c134 3 137 4 140 26 3 21 0 22
-52 22 l-56 0 0 220 0 220 -22 0 c-13 0 -50 -18 -82 -39z"/>
</g>
</svg>
