<?xml version="1.0" standalone="no"?>
<!DOCTYPE svg PUBLIC "-//W3C//DTD SVG 20010904//EN"
 "http://www.w3.org/TR/2001/REC-SVG-20010904/DTD/svg10.dtd">
<svg version="1.0" xmlns="http://www.w3.org/2000/svg"
 width="100.000000pt" height="100.000000pt" viewBox="0 0 100.000000 100.000000"
 preserveAspectRatio="xMidYMid meet">
<metadata>
Created by potrace 1.16, written by Peter Selinger 2001-2019
</metadata>
<g transform="translate(0.000000,100.000000) scale(0.100000,-0.100000)"
fill="#000000" stroke="none">
<path d="M639 741 c-54 -18 -69 -31 -69 -61 0 -17 1 -30 3 -30 1 0 20 9 42 20
22 11 54 20 72 20 36 0 72 -28 74 -57 5 -81 -20 -128 -126 -241 -54 -57 -75
-87 -75 -106 l0 -26 150 0 150 0 0 25 c0 24 -1 24 -109 27 l-109 3 60 65 c86
93 118 143 130 203 13 62 -4 115 -47 143 -30 19 -107 27 -146 15z"/>
<path d="M243 586 c-63 -105 -93 -165 -93 -186 l0 -30 104 0 105 0 3 -52 c3
-51 4 -53 33 -53 29 0 30 2 33 52 3 51 4 53 33 53 24 0 29 4 29 25 0 21 -5 25
-30 25 l-29 0 -3 158 -3 157 -45 3 -45 3 -92 -155z m117 -41 l0 -125 -75 0
c-41 0 -75 3 -75 6 0 8 142 244 146 244 2 0 4 -56 4 -125z"/>
</g>
</svg>
