<?xml version="1.0" standalone="no"?>
<!DOCTYPE svg PUBLIC "-//W3C//DTD SVG 20010904//EN"
 "http://www.w3.org/TR/2001/REC-SVG-20010904/DTD/svg10.dtd">
<svg version="1.0" xmlns="http://www.w3.org/2000/svg"
 width="100.000000pt" height="100.000000pt" viewBox="0 0 100.000000 100.000000"
 preserveAspectRatio="xMidYMid meet">
<metadata>
Created by potrace 1.16, written by Peter Selinger 2001-2019
</metadata>
<g transform="translate(0.000000,100.000000) scale(0.100000,-0.100000)"
fill="#000000" stroke="none">
<path d="M625 748 c-39 -14 -65 -37 -65 -58 0 -27 10 -30 43 -9 18 11 50 19
74 19 79 0 108 -84 47 -137 -19 -17 -38 -23 -73 -23 -32 0 -51 -5 -54 -13 -9
-24 7 -34 62 -40 62 -7 98 -28 111 -63 33 -85 -63 -140 -165 -95 -26 11 -49
21 -51 21 -2 0 -4 -14 -4 -31 0 -25 6 -32 35 -45 52 -21 153 -18 193 6 94 58
94 184 -1 225 l-28 12 26 17 c58 38 69 140 21 185 -40 38 -111 50 -171 29z"/>
<path d="M323 738 c-38 -49 -183 -312 -183 -332 l0 -26 110 0 110 0 0 -54 c0
-58 8 -71 40 -61 17 5 20 15 20 60 0 53 0 54 33 57 24 2 32 8 32 23 0 15 -8
21 -32 23 l-32 3 -3 157 -3 157 -41 3 c-25 2 -45 -2 -51 -10z m34 -305 c-3 -2
-39 -3 -81 -1 l-76 3 78 130 77 129 3 -128 c1 -71 1 -131 -1 -133z"/>
</g>
</svg>
