<?xml version="1.0" standalone="no"?>
<!DOCTYPE svg PUBLIC "-//W3C//DTD SVG 20010904//EN"
 "http://www.w3.org/TR/2001/REC-SVG-20010904/DTD/svg10.dtd">
<svg version="1.0" xmlns="http://www.w3.org/2000/svg"
 width="100.000000pt" height="100.000000pt" viewBox="0 0 100.000000 100.000000"
 preserveAspectRatio="xMidYMid meet">
<metadata>
Created by potrace 1.16, written by Peter Selinger 2001-2019
</metadata>
<g transform="translate(0.000000,100.000000) scale(0.100000,-0.100000)"
fill="#000000" stroke="none">
<path d="M338 748 c-29 -24 -188 -303 -188 -331 l0 -27 105 0 104 0 3 -57 c3
-57 3 -58 33 -58 30 0 30 1 33 58 3 55 4 57 31 57 16 0 31 6 33 13 9 23 -4 37
-33 37 l-29 0 0 154 c0 131 -2 155 -16 160 -25 10 -59 7 -76 -6z m19 -305 c-3
-2 -37 -3 -76 -1 l-71 3 73 121 72 122 3 -120 c1 -67 1 -123 -1 -125z"/>
<path d="M587 754 c-4 -4 -7 -61 -7 -126 l0 -118 70 0 c113 0 153 -36 135
-120 -14 -64 -104 -90 -189 -55 -33 14 -37 14 -43 -1 -10 -27 11 -48 63 -62
57 -14 113 -8 167 20 70 35 97 145 53 213 -24 36 -72 57 -140 61 l-61 3 -3 65
-3 65 98 3 c97 3 98 3 98 28 l0 25 -116 3 c-63 1 -118 -1 -122 -4z"/>
</g>
</svg>
