<?xml version="1.0" standalone="no"?>
<!DOCTYPE svg PUBLIC "-//W3C//DTD SVG 20010904//EN"
 "http://www.w3.org/TR/2001/REC-SVG-20010904/DTD/svg10.dtd">
<svg version="1.0" xmlns="http://www.w3.org/2000/svg"
 width="100.000000pt" height="100.000000pt" viewBox="0 0 100.000000 100.000000"
 preserveAspectRatio="xMidYMid meet">
<metadata>
Created by potrace 1.16, written by Peter Selinger 2001-2019
</metadata>
<g transform="translate(0.000000,100.000000) scale(0.100000,-0.100000)"
fill="#000000" stroke="none">
<path d="M324 753 c-20 -15 -194 -320 -194 -341 0 -21 4 -22 110 -22 l110 0 0
-60 c0 -60 0 -60 30 -60 28 0 29 1 32 58 3 56 4 57 33 57 25 1 30 5 30 25 0
21 -5 26 -32 28 l-32 3 -3 157 -3 157 -35 3 c-19 1 -40 -1 -46 -5z m26 -183
l0 -130 -80 0 -79 0 77 129 c42 72 78 130 80 130 1 1 2 -57 2 -129z"/>
<path d="M639 737 c-66 -44 -99 -125 -99 -242 0 -133 43 -214 122 -229 45 -8
106 6 141 34 63 50 72 171 18 232 -24 27 -36 32 -87 36 -39 3 -72 -1 -95 -11
l-36 -15 9 46 c17 95 59 128 153 119 63 -6 65 -6 65 17 0 30 -16 36 -94 36
-49 0 -71 -5 -97 -23z m126 -242 c29 -28 34 -89 10 -134 -16 -33 -33 -41 -80
-41 -55 0 -85 44 -85 126 0 41 3 46 33 59 50 22 94 19 122 -10z"/>
</g>
</svg>
