<?xml version="1.0" standalone="no"?>
<!DOCTYPE svg PUBLIC "-//W3C//DTD SVG 20010904//EN"
 "http://www.w3.org/TR/2001/REC-SVG-20010904/DTD/svg10.dtd">
<svg version="1.0" xmlns="http://www.w3.org/2000/svg"
 width="100.000000pt" height="100.000000pt" viewBox="0 0 100.000000 100.000000"
 preserveAspectRatio="xMidYMid meet">
<metadata>
Created by potrace 1.16, written by Peter Selinger 2001-2019
</metadata>
<g transform="translate(0.000000,100.000000) scale(0.100000,-0.100000)"
fill="#000000" stroke="none">
<path d="M324 753 c-20 -15 -194 -320 -194 -341 0 -21 4 -22 110 -22 l110 0 0
-60 c0 -60 0 -60 30 -60 28 0 29 1 32 58 3 56 4 57 33 57 25 1 30 5 30 25 0
21 -5 26 -32 28 l-32 3 -3 157 -3 157 -35 3 c-19 1 -40 -1 -46 -5z m26 -183
l0 -130 -80 0 -79 0 77 129 c42 72 78 130 80 130 1 1 2 -57 2 -129z"/>
<path d="M603 741 c-40 -25 -53 -49 -53 -102 0 -35 6 -47 40 -82 22 -22 39
-41 38 -42 -95 -62 -119 -116 -83 -185 22 -43 69 -64 145 -64 108 0 166 46
164 131 -1 47 -12 64 -66 104 l-38 27 26 16 c66 44 82 125 35 178 -27 30 -34
33 -102 36 -60 2 -80 -1 -106 -17z m143 -39 c6 -4 16 -17 23 -29 15 -30 -6
-82 -43 -106 -26 -17 -28 -17 -62 4 -54 33 -69 84 -34 119 20 20 93 28 116 12z
m-3 -237 c55 -38 63 -110 15 -136 -34 -18 -100 -16 -131 4 -22 14 -27 25 -27
56 0 32 6 44 35 70 43 38 59 38 108 6z"/>
</g>
</svg>
