<?xml version="1.0" standalone="no"?>
<!DOCTYPE svg PUBLIC "-//W3C//DTD SVG 20010904//EN"
 "http://www.w3.org/TR/2001/REC-SVG-20010904/DTD/svg10.dtd">
<svg version="1.0" xmlns="http://www.w3.org/2000/svg"
 width="100.000000pt" height="100.000000pt" viewBox="0 0 100.000000 100.000000"
 preserveAspectRatio="xMidYMid meet">
<metadata>
Created by potrace 1.16, written by Peter Selinger 2001-2019
</metadata>
<g transform="translate(0.000000,100.000000) scale(0.100000,-0.100000)"
fill="#000000" stroke="none">
<path d="M334 752 c-7 -4 -53 -76 -104 -160 -65 -108 -90 -160 -88 -178 l3
-26 105 -2 105 -1 3 -58 c3 -57 4 -58 30 -55 25 3 27 6 30 60 3 56 3 57 35 60
24 2 32 8 32 23 0 15 -8 21 -32 23 l-33 3 0 154 c0 130 -2 154 -16 159 -21 8
-56 7 -70 -2z m23 -309 c-3 -2 -38 -3 -80 -1 l-75 3 76 128 77 127 3 -126 c1
-70 1 -129 -1 -131z"/>
<path d="M625 750 c-100 -41 -116 -228 -24 -275 33 -17 132 -17 172 0 42 18
-1 -110 -48 -141 -21 -14 -40 -16 -101 -11 -73 5 -75 5 -72 -16 7 -53 148 -57
219 -7 76 55 109 234 68 367 -6 18 -26 46 -45 63 -30 26 -42 30 -92 29 -31 0
-66 -4 -77 -9z m114 -50 c24 -13 51 -81 51 -129 0 -35 -3 -40 -31 -50 -40 -14
-94 -14 -119 -1 -24 13 -43 72 -35 110 11 49 42 80 81 80 20 0 43 -4 53 -10z"/>
</g>
</svg>
