<?xml version="1.0" standalone="no"?>
<!DOCTYPE svg PUBLIC "-//W3C//DTD SVG 20010904//EN"
 "http://www.w3.org/TR/2001/REC-SVG-20010904/DTD/svg10.dtd">
<svg version="1.0" xmlns="http://www.w3.org/2000/svg"
 width="100.000000pt" height="100.000000pt" viewBox="0 0 100.000000 100.000000"
 preserveAspectRatio="xMidYMid meet">
<metadata>
Created by potrace 1.16, written by Peter Selinger 2001-2019
</metadata>
<g transform="translate(0.000000,100.000000) scale(0.100000,-0.100000)"
fill="#000000" stroke="none">
<path d="M187 754 c-4 -4 -7 -61 -7 -126 l0 -118 70 0 c113 0 153 -36 135
-120 -14 -64 -104 -90 -189 -55 -33 14 -37 14 -43 -1 -10 -27 11 -48 63 -62
57 -14 113 -8 167 20 70 35 97 145 53 213 -24 36 -72 57 -140 61 l-61 3 -3 65
-3 65 98 3 c97 3 98 3 98 28 l0 25 -116 3 c-63 1 -118 -1 -122 -4z"/>
<path d="M609 737 c-54 -35 -73 -86 -77 -203 -5 -116 13 -197 50 -231 36 -33
103 -47 155 -32 91 25 130 117 121 284 -8 151 -51 205 -161 205 -39 0 -63 -6
-88 -23z m138 -42 c32 -23 46 -79 46 -185 0 -145 -29 -195 -111 -188 -51 4
-78 46 -87 137 -11 108 10 209 48 236 12 8 35 15 52 15 17 0 40 -7 52 -15z"/>
</g>
</svg>
