<?xml version="1.0" standalone="no"?>
<!DOCTYPE svg PUBLIC "-//W3C//DTD SVG 20010904//EN"
 "http://www.w3.org/TR/2001/REC-SVG-20010904/DTD/svg10.dtd">
<svg version="1.0" xmlns="http://www.w3.org/2000/svg"
 width="100.000000pt" height="100.000000pt" viewBox="0 0 100.000000 100.000000"
 preserveAspectRatio="xMidYMid meet">
<metadata>
Created by potrace 1.16, written by Peter Selinger 2001-2019
</metadata>
<g transform="translate(0.000000,100.000000) scale(0.100000,-0.100000)"
fill="#000000" stroke="none">
<path d="M194 747 c-2 -7 -3 -62 -2 -123 l3 -109 83 -5 c100 -6 122 -23 122
-95 0 -36 -5 -48 -31 -69 -36 -31 -98 -35 -156 -11 -45 19 -43 20 -43 -14 0
-25 6 -31 38 -42 136 -46 262 24 262 146 0 88 -56 136 -162 139 l-58 1 0 68 0
67 96 0 95 0 -3 28 -3 27 -118 3 c-91 2 -119 0 -123 -11z"/>
<path d="M648 718 c-51 -32 -68 -49 -68 -65 0 -29 11 -29 60 2 22 14 44 25 50
25 6 0 10 -64 10 -180 l0 -180 -61 0 c-57 0 -60 -1 -57 -22 3 -22 6 -23 141
-26 l137 -3 0 26 c0 23 -3 25 -50 25 l-50 0 -2 218 c-3 255 0 250 -110 180z"/>
</g>
</svg>
